# xmcd CD database file
#
# Track frame offsets:
#	182
#	30410
#	55997
#	80080
#	107252
#	134145
#	156450
#	183595
#	206370
#	239275
#	259225
#	291627
#
# Disc length: 4156 seconds
#
# Revision: 0
# Processed by: cddbd v1.5.2PL0 Copyright (c) Steve Scherf et al.
# Submitted via: CDex 1.51
#
DISCID=b4103a0c
DTITLE=Bireli Lagrene - Standard
DYEAR=1992
DGENRE=Jazz
TTITLE0=C'est si Bon
TTITLE1=Softly as in the a Morning Sunrise
TTITLE2=Days of Wine and Roses
TTITLE3=Stella by Starlight
TTITLE4=Smile
TTITLE5=Autumn Leaves
TTITLE6=Teach me Tonight
TTITLE7=Donna Lee
TTITLE8=Body and Soul
TTITLE9=Ornithology
TTITLE10=How Insensitive
TTITLE11=Nuages
EXTD=YEAR: 1992
EXTT0=
EXTT1=
EXTT2=
EXTT3=
EXTT4=
EXTT5=
EXTT6=
EXTT7=
EXTT8=
EXTT9=
EXTT10=
EXTT11=
PLAYORDER=
